<?xml version="1.0" standalone="no"?><!-- Generator: Gravit.io --><svg xmlns="http://www.w3.org/2000/svg" xmlns:xlink="http://www.w3.org/1999/xlink" style="isolation:isolate" viewBox="0 0 208 220" width="208" height="220"><defs><clipPath id="_clipPath_Tc5VhAJ9EQmr95ZnYqyfGXS5Hr5OzREL"><rect width="208" height="220"/></clipPath></defs><g clip-path="url(#_clipPath_Tc5VhAJ9EQmr95ZnYqyfGXS5Hr5OzREL)"><rect x="0" y="0" width="208" height="220" transform="matrix(1,0,0,1,0,0)" fill="rgb(255,255,255)"/><rect x="0" y="102" width="208" height="74" transform="matrix(1,0,0,1,0,0)" fill="rgb(194,194,194)" fill-opacity="0.3"/><rect x="30" y="3" width="21" height="7" transform="matrix(1,0,0,1,0,0)" fill="rgb(194,194,194)"/><rect x="128" y="5" width="15" height="3" transform="matrix(1,0,0,1,0,0)" fill="rgb(194,194,194)"/><rect x="30" y="82" width="96" height="3" transform="matrix(1,0,0,1,0,0)" fill="rgb(194,194,194)"/><ellipse vector-effect="non-scaling-stroke" cx="102.9999999999998" cy="127.74999999999994" rx="16.70970708928823" ry="16.75" fill="rgb(194,194,194)"/><rect x="30" y="77" width="96" height="3" transform="matrix(1,0,0,1,0,0)" fill="rgb(194,194,194)"/><rect x="30" y="72" width="96" height="3" transform="matrix(1,0,0,1,0,0)" fill="rgb(194,194,194)"/><rect x="81.855" y="159.75" width="42.29" height="3" transform="matrix(1,0,0,1,0,0)" fill="rgb(194,194,194)"/><rect x="51" y="205" width="106" height="5" transform="matrix(1,0,0,1,0,0)" fill="rgb(194,194,194)"/><rect x="88" y="164.75" width="31" height="3" transform="matrix(1,0,0,1,0,0)" fill="rgb(194,194,194)"/><rect x="86.29" y="148.75" width="33.419" height="7" transform="matrix(1,0,0,1,0,0)" fill="rgb(194,194,194)"/><ellipse vector-effect="non-scaling-stroke" cx="157.99999999999994" cy="127.74999999999994" rx="16.70970708928823" ry="16.75" fill="rgb(194,194,194)"/><rect x="136.855" y="159.75" width="42.29" height="3" transform="matrix(1,0,0,1,0,0)" fill="rgb(194,194,194)"/><rect x="143" y="164.75" width="31" height="3" transform="matrix(1,0,0,1,0,0)" fill="rgb(194,194,194)"/><rect x="141.29" y="148.75" width="33.419" height="7" transform="matrix(1,0,0,1,0,0)" fill="rgb(194,194,194)"/><ellipse vector-effect="non-scaling-stroke" cx="49.99999999999994" cy="127.74999999999994" rx="16.70970708928823" ry="16.75" fill="rgb(194,194,194)"/><rect x="28.855" y="159.75" width="42.29" height="3" transform="matrix(1,0,0,1,0,0)" fill="rgb(194,194,194)"/><rect x="66.71" y="214" width="74.581" height="3" transform="matrix(1,0,0,1,0,0)" fill="rgb(194,194,194)"/><rect x="35" y="164.75" width="31" height="3" transform="matrix(1,0,0,1,0,0)" fill="rgb(194,194,194)"/><rect x="33.29" y="148.75" width="33.419" height="7" transform="matrix(1,0,0,1,0,0)" fill="rgb(194,194,194)"/><rect x="169" y="5" width="12" height="3" transform="matrix(1,0,0,1,0,0)" fill="rgb(194,194,194)"/><rect x="159" y="5" width="8" height="3" transform="matrix(1,0,0,1,0,0)" fill="rgb(194,194,194)"/><rect x="145" y="5" width="12" height="3" transform="matrix(1,0,0,1,0,0)" fill="rgb(194,194,194)"/><rect x="30" y="55" width="61" height="13" transform="matrix(1,0,0,1,0,0)" fill="rgb(194,194,194)"/><rect x="71.145" y="192" width="65.71" height="7" transform="matrix(1,0,0,1,0,0)" fill="rgb(194,194,194)"/></g></svg>